<svg xmlns="http://www.w3.org/2000/svg" viewBox="0 0 1024 1024">
	<path d="M518.48,162.06c-197.65-3.62-360,160-356.42,359.11,3,169,124.13,309,283.71,339.82,34.4,6.64,66.23-20.19,66.23-55.48h0a56.42,56.42,0,0,0-45.65-55.44,235.76,235.76,0,0,1-122.64-65.86,241.08,241.08,0,0,1,0-339.13,236.75,236.75,0,0,1,336.58,0,238.72,238.72,0,0,1,62.87,112.16.79.79,0,0,1-.77,1H568c-30.93,0-56,25.26-56,56.43h0c0,31.16,25.07,56.42,56,56.42H806.12A56,56,0,0,0,862,515.22v-.57C862,322.06,708.79,165.54,518.48,162.06Z"/>
</svg>