<svg xmlns="http://www.w3.org/2000/svg" viewBox="0 0 1024 1024"><defs><style>.a{fill:#171717;}</style></defs><title>Logo</title><path class="a" d="M521.48.09C232.35-5.2-5.16,234.1.09,525.42c4.45,247.27,181.58,452.05,415,497.1C465.44,1032.23,512,993,512,941.36h0a82.55,82.55,0,0,0-66.78-81.1C377.67,847.11,315.54,814,265.81,763.92c-65.76-66.26-102-154.35-102-248s36.21-181.79,102-248S419,165.08,512,165.08s180.43,36.49,246.19,102.74a349.28,349.28,0,0,1,92,164.07,1.16,1.16,0,0,1-1.12,1.44H593.92c-45.24,0-81.92,36.95-81.92,82.54h0c0,45.59,36.68,82.54,81.92,82.54H942.25a81.87,81.87,0,0,0,81.75-81.7v-.84C1024,234.15,799.87,5.18,521.48.09Z"/></svg>