<?xml version="1.0" standalone="no"?>
<!DOCTYPE svg PUBLIC "-//W3C//DTD SVG 20010904//EN"
 "http://www.w3.org/TR/2001/REC-SVG-20010904/DTD/svg10.dtd">
<svg version="1.0" xmlns="http://www.w3.org/2000/svg"
 width="1024.000000pt" height="1024.000000pt" viewBox="0 0 1024.000000 1024.000000"
 preserveAspectRatio="xMidYMid meet">
<metadata>
Created by potrace 1.11, written by Peter Selinger 2001-2013
</metadata>
<g transform="translate(0.000000,1024.000000) scale(0.100000,-0.100000)"
fill="#000000" stroke="none">
<path d="M4890 8617 c-3 -3 -43 -7 -90 -11 -47 -4 -96 -8 -110 -10 -14 -3 -72
-12 -130 -21 -477 -72 -983 -276 -1400 -563 -262 -179 -529 -421 -701 -632
-24 -30 -50 -61 -57 -69 -21 -21 -144 -190 -189 -256 -249 -372 -437 -822
-522 -1255 -17 -83 -25 -130 -47 -265 -12 -79 -19 -230 -19 -440 0 -274 11
-421 45 -610 5 -27 12 -63 15 -80 8 -46 11 -62 40 -175 132 -526 377 -1006
729 -1425 155 -185 473 -474 685 -622 336 -235 774 -429 1191 -527 253 -60
401 -41 557 70 104 74 183 191 216 318 21 77 19 224 -3 296 -63 210 -232 360
-455 405 -812 165 -1494 764 -1770 1555 -31 90 -60 191 -71 243 -2 10 -6 26
-8 35 -3 9 -8 33 -10 52 -3 19 -10 62 -16 95 -25 146 -33 430 -17 615 10 110
59 351 93 460 252 804 885 1410 1689 1616 135 34 156 38 320 59 97 12 480 14
535 2 14 -3 61 -11 105 -17 209 -30 504 -126 705 -231 112 -59 340 -205 390
-251 14 -13 45 -39 70 -59 158 -128 365 -372 487 -572 110 -179 246 -501 278
-654 l7 -33 -894 -1 c-491 0 -906 -2 -923 -4 -237 -31 -427 -201 -481 -431
-22 -94 -14 -227 19 -322 46 -132 159 -259 284 -318 121 -57 71 -55 1423 -56
685 0 1265 3 1289 7 169 25 335 147 410 299 54 111 60 150 56 366 -2 107 -6
215 -9 240 -3 25 -8 68 -11 95 -10 79 -34 222 -56 320 -11 50 -22 99 -25 111
-8 39 -65 229 -94 311 -88 249 -227 532 -366 742 -166 251 -271 380 -483 591
-446 444 -1010 762 -1611 908 -69 17 -138 34 -155 37 -71 13 -214 35 -265 41
-30 3 -66 8 -80 11 -31 6 -564 15 -570 10z"/>
</g>
</svg>
